HIERARCHY
ROOT root
{
	OFFSET 0.000000 0.000000 0.000000
	CHANNELS 6 Xposition Yposition Zposition Zrotation Yrotation Xrotation
	JOINT lhip
	{
		OFFSET 0.058581 -0.082280 -0.017664
		CHANNELS 3 Zrotation Yrotation Xrotation
		JOINT lknee
		{
			OFFSET 0.043451 -0.386469 0.008037
			CHANNELS 3 Zrotation Yrotation Xrotation
			JOINT lankle
			{
				OFFSET -0.014790 -0.426874 -0.037428
				CHANNELS 3 Zrotation Yrotation Xrotation
				JOINT ltoe
				{
					OFFSET 0.041054 -0.060286 0.122042
					CHANNELS 3 Zrotation Yrotation Xrotation
					End Site
					{
						OFFSET 0.000000 0.000000 0.000000
					}
				}
			}
		}
	}
	JOINT rhip
	{
		OFFSET -0.060310 -0.090513 -0.013543
		CHANNELS 3 Zrotation Yrotation Xrotation
		JOINT rknee
		{
			OFFSET -0.043257 -0.383688 -0.004843
			CHANNELS 3 Zrotation Yrotation Xrotation
			JOINT rankle
			{
				OFFSET 0.019056 -0.420046 -0.034562
				CHANNELS 3 Zrotation Yrotation Xrotation
				JOINT rtoe
				{
					OFFSET -0.034840 -0.062106 0.130323
					CHANNELS 3 Zrotation Yrotation Xrotation
					End Site
					{
						OFFSET 0.000000 0.000000 0.000000
					}
				}
			}
		}
	}
	JOINT lowerback
	{
		OFFSET 0.004439 0.124404 -0.038385
		CHANNELS 3 Zrotation Yrotation Xrotation
		JOINT upperback
		{
			OFFSET 0.004488 0.137956 0.026820
			CHANNELS 3 Zrotation Yrotation Xrotation
			JOINT chest
			{
				OFFSET -0.002265 0.056032 0.002855
				CHANNELS 3 Zrotation Yrotation Xrotation
				JOINT lowerneck
				{
					OFFSET -0.013390 0.211636 -0.033468
					CHANNELS 3 Zrotation Yrotation Xrotation
					JOINT upperneck
					{
						OFFSET 0.010113 0.088937 0.050410
						CHANNELS 3 Zrotation Yrotation Xrotation
						End Site
						{
							OFFSET 0.000000 0.000000 0.000000
						}
					}
				}
				JOINT lclavicle
				{
					OFFSET 0.071702 0.114000 -0.018898
					CHANNELS 3 Zrotation Yrotation Xrotation
					JOINT lshoulder
					{
						OFFSET 0.122921 0.045205 -0.019046
						CHANNELS 3 Zrotation Yrotation Xrotation
						JOINT lelbow
						{
							OFFSET 0.255332 -0.015649 -0.022946
							CHANNELS 3 Zrotation Yrotation Xrotation
							JOINT lwrist
							{
								OFFSET 0.265709 0.012698 -0.007375
								CHANNELS 3 Zrotation Yrotation Xrotation
								End Site
								{
									OFFSET 0.000000 0.000000 0.000000
								}
							}
						}
					}
				}
				JOINT rclavicle
				{
					OFFSET -0.082954 0.112472 -0.023707
					CHANNELS 3 Zrotation Yrotation Xrotation
					JOINT rshoulder
					{
						OFFSET -0.113228 0.046853 -0.008472
						CHANNELS 3 Zrotation Yrotation Xrotation
						JOINT relbow
						{
							OFFSET -0.260127 -0.014369 -0.031269
							CHANNELS 3 Zrotation Yrotation Xrotation
							JOINT rwrist
							{
								OFFSET -0.269108 0.006794 -0.006027
								CHANNELS 3 Zrotation Yrotation Xrotation
								End Site
								{
									OFFSET 0.000000 0.000000 0.000000
								}
							}
						}
					}
				}
			}
		}
	}
}
MOTION
Frames: 14
Frame Time: 0.033333
0.425721 0.357933 1.026837 62.890388 0.182645 90.384298 2.547119 5.353703 5.279971 -5.956072 -4.874164 4.962884 3.784811 9.813626 -3.289875 0.000000 -0.000000 0.000000 -1.135434 -6.658690 -2.588445 4.808137 0.107216 7.448710 2.224736 -11.030969 -1.110461 0.000000 -0.000000 0.000000 0.045235 -0.959139 4.730029 2.289793 -4.119198 -1.836780 1.244010 -1.874661 -3.150951 -2.730323 -2.905703 -17.350916 -0.276236 -0.357866 16.744984 -25.432283 -7.896878 4.194206 -54.381908 -9.740071 18.395349 -12.340903 -31.941765 1.014144 38.163872 1.283815 -20.238099 26.605227 10.457886 1.195084 55.711221 6.935971 18.629433 -6.558261 13.364070 -8.680686 -5.877323 3.732857 10.210448 
0.415698 0.370727 1.026991 63.502143 1.542578 91.085594 2.593657 6.115841 4.002630 -5.358144 -2.891080 3.090491 4.629372 10.530019 -2.736991 0.000000 -0.000000 0.000000 0.527222 -6.549383 -3.142301 4.288078 -0.951979 5.589906 2.035655 -12.456580 -1.943209 0.000000 -0.000000 0.000000 0.364106 -1.429816 5.190677 2.366063 -4.184669 -2.334700 1.362407 -2.018122 -2.978058 -2.912030 -3.565717 -18.028411 -0.203064 -0.337639 17.012164 -24.923064 -7.897265 4.225265 -54.353252 -10.414959 19.023797 -11.467394 -34.840134 1.114771 37.621612 2.122573 -21.998371 26.411663 10.275509 1.218411 55.468600 6.728724 18.837816 -6.790448 13.525043 -8.612269 -5.554665 3.829396 10.448414 
0.405831 0.382492 1.021083 63.643443 2.405447 91.043323 2.522029 6.316980 3.414308 -4.889536 -2.432343 2.661306 4.862300 11.924647 -4.202739 0.000000 -0.000000 0.000000 1.311815 -6.563187 -3.909532 3.992393 -1.351622 7.804855 -0.100488 -13.952094 -7.738552 0.000000 -0.000000 0.000000 -0.043043 -1.478574 6.247783 2.506997 -4.270300 -2.493168 1.595848 -2.110759 -2.621392 -2.847884 -2.956547 -18.777726 -0.159051 -1.223709 16.518523 -24.755569 -8.108967 3.794165 -53.322269 -10.825275 18.964836 -11.385231 -35.827490 1.101133 38.218500 2.712927 -22.634519 27.196219 10.408041 0.980860 54.543821 6.592011 18.426867 -6.935415 13.286884 -9.035754 -6.061537 4.027422 10.220828 
0.397788 0.394216 1.010953 63.571912 3.117070 90.484070 2.928497 6.354798 3.660200 -4.914513 -3.494425 2.552094 5.867018 12.626434 -7.257653 0.000000 -0.000000 0.000000 1.609865 -6.369949 -3.952683 3.873827 -2.136846 11.847227 -1.656258 -16.234910 -14.448344 0.000000 -0.000000 0.000000 -0.268413 -1.545834 7.672507 2.648307 -4.313787 -2.354387 1.716274 -2.029335 -2.674813 -2.555243 -2.368443 -19.505993 -0.492822 -1.966266 16.595129 -25.315572 -8.611533 3.674224 -51.707955 -10.593794 18.236358 -10.929311 -34.890758 0.719247 38.090041 2.789667 -22.506848 28.347176 11.164325 0.675714 53.515182 5.888017 17.783013 -7.525030 12.312782 -9.887313 -5.881178 4.517359 9.724243 
0.391214 0.404087 1.000687 63.104778 3.230305 90.399500 2.648532 6.286198 3.693801 -5.129726 -3.467805 2.040906 6.207679 13.494736 -10.172621 0.000000 -0.000000 0.000000 1.234864 -5.774632 -3.583889 4.113922 -1.601583 15.151733 -1.217408 -16.203458 -19.047715 0.000000 -0.000000 0.000000 -0.846500 -1.161626 7.762272 2.788294 -4.386297 -2.247744 1.617158 -1.844164 -2.587987 -2.051743 -1.727322 -19.238076 -1.005665 -2.919561 16.449917 -25.745062 -8.710662 3.495510 -50.486653 -10.337358 17.370240 -10.745003 -31.265790 -1.370548 39.220464 1.256796 -20.611744 29.260161 11.114772 0.278504 52.816811 5.067340 17.576664 -7.475288 12.010869 -10.193742 -6.478204 4.591477 9.964145 
0.385417 0.412826 0.992110 63.094410 3.262607 90.538533 2.162321 6.415456 2.884924 -5.281742 -3.555886 2.163345 7.511655 14.123324 -12.664861 0.000000 -0.000000 0.000000 1.014104 -5.982822 -2.138146 4.093435 -0.386479 16.010002 -0.901018 -16.559505 -21.724404 0.000000 -0.000000 0.000000 -0.974094 -0.814393 7.498332 2.843152 -4.775692 -2.873041 1.455267 -1.899366 -2.357211 -1.669763 -1.727794 -18.596954 -1.213334 -2.855903 17.047666 -26.053823 -8.051116 3.592497 -49.622819 -9.552903 15.724955 -11.074901 -27.125574 -2.295757 38.751495 0.786501 -18.834485 29.285352 10.574656 -0.189926 52.996267 4.487877 17.501209 -7.215613 11.721786 -9.947827 -6.255861 4.610622 10.186790 
0.379856 0.420447 0.988519 62.413904 3.150989 90.603954 1.797032 6.685168 2.096444 -5.489813 -3.005141 2.458764 7.646201 13.777863 -13.211786 0.000000 -0.000000 0.000000 0.950644 -6.388634 -0.462740 4.031417 0.770920 16.076746 -0.436591 -16.105143 -22.349205 0.000000 -0.000000 0.000000 -1.022704 -0.323778 7.321525 2.825966 -4.817801 -3.524017 1.295700 -1.593387 -2.160469 -1.200190 -1.892461 -18.494298 -1.222368 -3.247078 17.714095 -26.346205 -6.820370 3.412329 -48.629955 -8.377488 14.204263 -12.122492 -23.278582 -4.015576 40.442558 -1.226355 -16.785736 29.435802 9.880581 -0.744017 52.976757 3.826059 17.313683 -6.970158 11.879127 -9.793501 -6.126555 5.225965 10.765367 
0.372408 0.427659 0.992202 61.351256 2.996690 90.619447 1.600238 5.857448 1.328732 -5.919855 -2.460522 2.646741 7.189744 14.442292 -11.298923 0.000000 -0.000000 0.000000 1.395465 -5.393483 0.714437 4.341390 2.014914 17.102047 0.843315 -14.960998 -21.324436 0.000000 -0.000000 0.000000 -0.986956 0.063860 7.120330 2.911829 -4.566005 -3.713026 1.132880 -1.283514 -2.036284 -0.724029 -1.694750 -18.445814 -1.194472 -3.432014 17.215440 -26.353319 -5.488540 3.585276 -47.690707 -6.347742 13.088054 -12.791189 -21.643306 -4.174581 39.114449 -0.903214 -15.662217 29.357261 9.333512 -1.113687 53.243143 3.740592 17.574055 -6.879121 12.190101 -9.338966 -6.367111 5.052853 10.783045 
0.364080 0.434726 1.001317 59.708857 2.950632 89.957637 1.585278 5.200005 1.431844 -6.091871 -1.333606 2.352075 6.430425 14.589408 -8.208126 0.000000 -0.000000 0.000000 2.165367 -4.449243 1.813717 4.805282 3.523361 19.149047 1.174105 -13.322146 -18.544949 0.000000 -0.000000 0.000000 -0.584334 0.335166 7.213645 3.018328 -4.157763 -2.975620 0.994744 -0.792017 -1.973871 -0.377581 -1.275545 -18.852950 -1.518550 -3.405741 16.750750 -26.047356 -4.315772 3.547177 -47.128361 -4.235559 12.443676 -13.880989 -20.535448 -3.660427 37.456260 -1.977641 -15.469579 29.025674 9.443966 -1.098771 53.660056 4.528246 17.758995 -7.058981 12.122214 -9.240289 -5.643693 5.304504 10.832755 
0.354084 0.442702 1.012788 58.907838 2.621047 90.056084 1.483867 7.530800 0.171165 -6.158030 -1.639692 2.803875 4.872321 12.173499 -4.204550 0.000000 -0.000000 0.000000 2.377819 -4.927972 1.549040 5.542237 4.250229 21.211028 2.073153 -10.027478 -13.888196 0.000000 -0.000000 0.000000 -0.344244 0.190240 6.866806 3.220551 -3.998823 -2.565288 1.050347 -0.444869 -2.055674 -0.397089 -0.713104 -18.743621 -1.771828 -3.244170 16.300799 -25.702137 -3.781816 3.744581 -46.824884 -1.894848 11.924639 -15.024269 -19.583317 -2.081440 36.400258 -3.114770 -13.921461 28.703783 9.475148 -0.738895 53.383313 5.273900 16.972348 -6.555441 13.073549 -8.601767 -5.508662 5.597623 11.458689 
0.344605 0.450588 1.024095 57.872915 1.967413 89.786972 0.916730 5.509814 0.540116 -6.257045 -0.578778 1.180681 4.439850 12.902392 -0.016894 0.000000 -0.000000 0.000000 1.917266 -4.412377 2.018067 6.283772 4.326592 20.955456 4.904614 -7.984260 -3.732269 0.000000 -0.000000 0.000000 -0.164311 0.795061 6.747286 3.543835 -3.810978 -2.447358 1.074745 -0.568727 -1.909598 -0.770263 -0.915562 -18.042744 -2.082842 -2.513735 15.763298 -25.470460 -3.274759 4.263404 -46.713504 -0.819256 12.611192 -16.686185 -18.532643 -2.196964 36.234275 -4.316589 -13.488887 28.438190 9.036202 -0.920599 53.085830 6.026793 18.101259 -6.477890 13.702474 -9.308025 -5.820987 5.408154 11.965102 
0.334045 0.459550 1.030755 57.309748 0.981290 89.957434 0.035831 5.524260 -0.509092 -6.158051 -0.078666 1.230295 3.230270 11.907492 1.941851 0.000000 -0.000000 0.000000 0.825880 -4.914546 1.808715 6.289092 4.378867 19.043526 5.003690 -7.495267 2.161876 0.000000 -0.000000 0.000000 0.059854 0.929407 6.304251 3.594651 -4.087736 -2.036961 0.968879 -0.355587 -1.978670 -1.259669 -0.536379 -17.884293 -2.348637 -1.715192 16.247486 -25.048825 -2.798962 4.193014 -46.715830 0.003941 12.862549 -18.310064 -17.994433 -1.749991 35.653365 -5.454645 -12.930912 28.037571 8.797745 -1.001844 53.133244 7.316575 18.305108 -6.214903 13.535469 -10.350513 -6.143830 5.842080 12.796189 
0.322387 0.468156 1.031661 56.924224 0.165134 90.399820 -0.572982 5.954081 -1.866876 -5.970667 -0.777601 1.803489 2.364517 10.649678 0.683569 0.000000 -0.000000 0.000000 0.138747 -5.278696 1.216504 6.128204 5.406303 17.881802 4.636934 -7.294769 1.345387 0.000000 -0.000000 0.000000 0.695714 0.960403 6.018596 3.349609 -3.900956 -2.419996 0.639658 -0.425622 -1.929682 -1.548141 -0.422668 -17.527060 -2.623585 -1.307737 16.545609 -25.226335 -2.762085 4.561240 -46.174914 0.704451 12.697176 -18.999993 -17.807244 -0.352330 33.668830 -6.557024 -12.503216 28.117992 8.947497 -0.615713 52.922300 8.053546 17.788131 -6.282985 13.709329 -11.093783 -5.584503 5.790713 12.992805 
0.312210 0.475758 1.026654 55.905676 -0.922745 89.725496 -1.028788 3.795678 -0.828636 -6.223447 -1.574069 1.855167 3.962376 11.777812 -4.321872 0.000000 -0.000000 0.000000 -1.105339 -4.849923 2.077628 6.583903 6.247677 16.824767 4.496965 -8.155303 -0.745462 0.000000 -0.000000 0.000000 0.811658 1.711381 6.524240 3.144459 -3.816226 -2.036763 0.343196 -0.238371 -1.779753 -1.658196 -0.149190 -17.864130 -3.031698 -1.523464 16.647157 -25.743012 -3.196634 4.408416 -45.588466 0.209263 13.445359 -19.540824 -17.678596 -0.842493 34.374583 -6.407637 -12.424792 28.683226 9.464156 -0.913957 52.078602 8.007771 18.674744 -6.440185 14.157060 -11.735830 -6.363591 5.671325 13.172288 
